<?xml version="1.0" standalone="no"?>
<!DOCTYPE svg PUBLIC "-//W3C//DTD SVG 20010904//EN"
 "http://www.w3.org/TR/2001/REC-SVG-20010904/DTD/svg10.dtd">
<svg version="1.0" xmlns="http://www.w3.org/2000/svg"
 width="192.000000pt" height="192.000000pt" viewBox="0 0 192.000000 192.000000"
 preserveAspectRatio="xMidYMid meet">
<metadata>
Created by potrace 1.11, written by Peter Selinger 2001-2013
</metadata>
<g transform="translate(0.000000,192.000000) scale(0.100000,-0.100000)"
fill="#000000" stroke="none">
<path d="M945 1475 c-28 -14 -22 -52 9 -52 32 0 49 30 28 48 -13 11 -22 12
-37 4z"/>
<path d="M570 1436 c0 -9 -7 -19 -16 -23 -13 -5 -12 -8 5 -25 12 -10 21 -24
21 -30 0 -6 8 -4 18 5 10 10 23 17 29 17 5 0 8 14 5 30 -2 17 -10 30 -17 30
-7 0 -20 3 -29 6 -11 4 -16 1 -16 -10z"/>
<path d="M1338 1424 c-7 -14 -17 -23 -25 -20 -8 4 -18 -5 -23 -20 -14 -37 -12
-53 4 -25 12 22 14 22 23 7 8 -15 13 -12 36 23 32 48 32 47 12 55 -10 4 -20
-3 -27 -20z"/>
<path d="M950 1395 c0 -8 2 -15 4 -15 2 0 6 7 10 15 3 8 1 15 -4 15 -6 0 -10
-7 -10 -15z"/>
<path d="M865 1328 c-9 -29 -19 -59 -21 -67 -3 -9 -21 2 -57 35 l-52 49 -5
-72 -5 -71 -62 28 c-35 16 -63 26 -63 22 0 -4 9 -31 20 -60 11 -29 20 -56 20
-62 0 -5 -26 -7 -64 -3 -57 5 -69 3 -115 -22 -38 -21 -56 -39 -72 -72 -19 -40
-20 -47 -7 -80 11 -29 26 -43 73 -68 33 -17 60 -35 60 -40 0 -15 -44 -18 -76
-4 -35 14 -34 14 -43 -33 -6 -32 -3 -39 17 -53 14 -9 48 -18 76 -22 44 -5 57
-2 81 16 48 35 62 24 40 -35 -6 -15 -9 -28 -7 -31 2 -2 29 8 61 22 31 14 59
25 61 25 3 0 5 -32 5 -71 l0 -71 52 47 c28 25 54 42 58 38 4 -4 15 -35 25 -68
l17 -59 34 54 c19 30 39 55 45 55 5 0 25 -25 44 -55 22 -36 35 -50 39 -40 2 8
12 39 21 68 9 28 19 52 23 52 3 0 28 -21 54 -47 l48 -47 0 73 c0 82 0 81 83
39 22 -11 41 -17 44 -14 3 3 -3 31 -15 61 -24 66 -20 70 63 63 52 -4 76 8 36
19 -14 4 -20 18 -25 66 -3 33 -8 62 -11 65 -2 2 -25 1 -51 -3 l-47 -7 6 -68 6
-68 -29 -4 c-28 -4 -28 -3 -34 56 -3 34 -8 109 -12 169 l-6 107 31 0 31 0 0
-60 0 -60 56 0 56 0 -7 60 -7 60 30 0 30 0 6 -92 c4 -51 7 -121 9 -155 1 -37
6 -61 12 -59 6 2 9 9 7 15 -1 6 2 11 6 11 4 0 6 15 4 33 -2 22 2 38 13 47 25
21 50 0 49 -39 -2 -37 3 -40 16 -7 5 14 5 37 0 57 -5 19 -12 87 -16 152 l-6
117 -49 0 c-46 0 -49 -2 -49 -25 0 -22 -4 -25 -40 -25 -33 0 -40 -3 -40 -20 0
-13 -9 -22 -25 -26 -14 -4 -28 -4 -30 -2 -3 3 4 31 15 63 11 32 20 62 20 66 0
5 -28 -5 -62 -21 l-63 -30 -5 70 -5 70 -52 -45 -52 -46 -17 58 c-9 32 -20 62
-24 66 -4 5 -22 -17 -40 -47 -17 -31 -35 -56 -38 -56 -4 0 -22 25 -40 55 -18
30 -35 55 -37 55 -2 0 -11 -24 -20 -52z m643 -244 c2 -86 0 -103 -14 -108 -26
-10 -31 0 -38 76 -4 40 -9 88 -13 106 -5 33 -5 33 28 30 l34 -3 3 -101z m-484
-118 c35 -113 61 -208 58 -211 -3 -3 -18 -5 -33 -5 -24 0 -28 5 -39 50 -7 28
-16 53 -21 56 -5 3 -24 2 -44 -2 -35 -6 -35 -6 -35 -60 0 -53 0 -54 -30 -54
-23 0 -30 5 -30 19 0 34 31 386 35 398 3 9 61 23 73 17 2 -1 31 -94 66 -208z
m140 188 c10 -4 16 -18 16 -36 0 -27 -2 -30 -26 -24 -30 8 -54 -8 -54 -35 0
-10 19 -30 43 -46 42 -28 42 -29 49 -103 8 -87 -5 -111 -61 -112 -38 -1 -39 0
-47 39 -6 29 -5 30 27 25 23 -3 36 0 45 12 19 27 5 55 -38 77 -61 31 -85 107
-53 169 19 37 57 50 99 34z m-594 -79 c0 -34 -1 -35 -39 -35 -21 0 -44 -6 -50
-14 -10 -12 -6 -13 29 -9 24 4 40 2 40 -5 0 -13 -59 -34 -73 -25 -5 3 -7 1 -3
-5 3 -6 23 -16 44 -23 20 -6 48 -21 61 -33 l24 -21 -6 78 c-5 76 -5 78 19 88
14 5 29 9 33 9 5 0 21 -43 37 -96 28 -94 29 -95 36 -58 4 22 10 69 13 107 6
61 9 68 32 73 13 4 28 3 32 -2 13 -14 40 -245 34 -286 -3 -21 -11 -38 -18 -38
-8 0 -17 35 -25 110 -8 61 -17 110 -20 110 -4 0 -11 -48 -16 -107 -8 -98 -11
-108 -29 -108 -16 0 -25 18 -52 105 l-33 105 6 -108 6 -109 -24 3 c-13 2 -34
-4 -48 -14 -30 -21 -79 -22 -124 -3 -28 12 -33 18 -29 39 5 23 8 25 30 16 36
-14 69 -11 84 7 19 23 2 44 -60 74 -28 14 -56 32 -61 40 -15 24 -12 83 6 109
19 26 87 60 122 61 19 0 22 -5 22 -35z m790 -171 c0 -9 -5 -14 -12 -12 -18 6
-21 28 -4 28 9 0 16 -7 16 -16z"/>
<path d="M920 1000 c0 -81 6 -92 39 -71 11 7 10 20 -5 80 -10 39 -22 71 -26
71 -4 0 -8 -36 -8 -80z"/>
<path d="M619 1332 c5 -10 18 -25 28 -33 12 -10 11 -5 -6 19 -24 35 -38 43
-22 14z"/>
<path d="M436 1234 c-8 -21 11 -45 30 -37 19 7 18 39 -2 47 -21 8 -21 8 -28
-10z"/>
<path d="M514 1196 c11 -9 24 -16 30 -16 12 0 7 5 -24 19 -24 11 -24 11 -6 -3z"/>
<path d="M1357 739 c12 -12 25 -20 28 -17 3 3 -7 13 -22 23 l-28 17 22 -23z"/>
<path d="M1467 744 c-9 -9 4 -34 18 -34 14 0 27 25 18 34 -4 3 -12 6 -18 6 -6
0 -14 -3 -18 -6z"/>
<path d="M1402 696 c-12 -6 -20 -17 -17 -24 3 -8 5 -23 5 -34 0 -11 5 -18 13
-15 6 2 20 0 30 -5 12 -6 17 -5 17 5 0 8 7 20 15 27 13 11 12 16 -10 36 -15
13 -27 23 -28 23 -1 -1 -12 -6 -25 -13z"/>
<path d="M650 621 c-12 -24 -13 -34 -1 -27 9 6 22 46 15 46 -2 0 -8 -9 -14
-19z"/>
<path d="M608 563 c-2 -10 3 -23 11 -29 21 -16 50 3 43 28 -6 24 -49 24 -54 1z"/>
<path d="M1115 540 c5 -14 2 -20 -10 -20 -11 0 -15 -6 -11 -17 3 -10 8 -30 12
-45 9 -40 38 -38 31 1 -4 18 -2 31 5 33 7 3 5 15 -6 36 -18 36 -31 43 -21 12z"/>
</g>
</svg>
